<svg id="Layer_1" data-name="Layer 1" xmlns="http://www.w3.org/2000/svg" viewBox="0 0 800 200" xmlns:xlink="http://www.w3.org/1999/xlink">
 <defs>
  <style>
   .cls-1{fill:#0059d2;}.cls-2{fill:#35a7ff;}.cls-3{fill:#061a36;}
  </style>
 </defs>
 <path class="cls-1" d="M77.72,135.49l4.37-13.89q2.23-6.75,4.51-13.52A9.31,9.31,0,0,0,76.46,95.94c-35.13,4.91-43.34,5.85-46.83,16.41-3,9.1,3.05,23.14,27,23.14Z">
 </path>
 <path class="cls-2" d="M55.65,134.94c-24.75,0-27.54-13.71-26-22.59l-10.21,31.4c-7.9,24.66,7.19,38,27.88,38h62a9.27,9.27,0,0,0,8.79-6.34l9.4-28.34a9.25,9.25,0,0,0-8.79-12.17Z">
 </path>
 <path class="cls-1" d="M94.7,61.42l4.37-13.9q2.24-6.75,4.5-13.52A9.3,9.3,0,0,0,93.44,21.87C58.31,26.78,50.1,27.72,46.6,38.27c-3,9.1,3.06,23.15,27,23.15Z">
 </path>
 <path class="cls-2" d="M72.62,60.86c-24.74,0-27.53-13.71-26-22.59L36.39,69.68c-7.9,24.66,7.19,38,27.88,38h62a9.25,9.25,0,0,0,8.78-6.35L144.42,73a9.27,9.27,0,0,0-8.79-12.18Z">
 </path>
 <path class="cls-3" d="M275.14,40.56H180.42a3,3,0,0,0-3.28,3.28V59.4a3,3,0,0,0,3.28,3.28h35.26V163.44a3,3,0,0,0,3.28,3.29h17.81a3,3,0,0,0,3.28-3.29V62.68h35.09a3,3,0,0,0,3.28-3.28V43.84A3,3,0,0,0,275.14,40.56Z">
 </path>
 <path class="cls-3" d="M297.23,166.73c2.07,0,3.11-1.21,3.11-3.29V116.09c0-16.94,6.05-22.65,20.22-22.65h8.64a3,3,0,0,0,3.28-3.28V75a3,3,0,0,0-3.28-3.28h-8.81c-14.18,0-18,11.06-18,11.06h-2.07v-6c0-2.08-1-3.28-3.11-3.28H280.29A3,3,0,0,0,277,76.68v86.76a3,3,0,0,0,3.29,3.29Z">
 </path>
 <path class="cls-3" d="M406,73.4a3,3,0,0,0-3.28,3.28v55.83c0,11.23-7.44,16.42-15.73,16.42s-15.56-5.19-15.56-16.42V76.68a3,3,0,0,0-3.28-3.28H351.19c-2.07,0-3.11,1.2-3.11,3.28v58.59c0,20.74,11.92,33.19,29.73,33.19,17.63,0,22.81-12.27,22.81-12.27h2.08v7.25a3,3,0,0,0,3.28,3.29h16.94a3,3,0,0,0,3.28-3.29V76.68a3,3,0,0,0-3.28-3.28Z">
 </path>
 <path class="cls-3" d="M484,71.67c-28,0-43.91,20.56-43.91,48.05,0,27.82,15.73,48.74,45.12,48.74,24.88,0,34.56-15.56,37.33-22,.86-1.91.17-3.29-1.73-4.32l-14-6.23c-1.73-.86-3.28-.17-4.15,1.56-1.9,4.15-6.74,10.89-17.45,10.89-11.76,0-19.88-7.43-21.09-22h58.42a3,3,0,0,0,3.28-3.29v-4C525.81,89.81,510.26,71.67,484,71.67Zm-.18,19.18c9.51,0,17.29,6.05,18.15,19.53H464.11C465.32,96.9,474.13,90.85,483.81,90.85Z">
 </path>
 <path class="cls-3" d="M588.57,71.67c-17.11,0-23.16,10.71-23.16,10.71h-2.08V42.11a3,3,0,0,0-3.28-3.28H543.11C541,38.83,540,40,540,42.11V163.44c0,2.08,1,3.29,3.11,3.29h16.94a3,3,0,0,0,3.28-3.29v-6h2.08s6.05,10.71,23.16,10.71c24,0,38.2-21.09,38.2-48.22S612.59,71.67,588.57,71.67Zm-6.22,76.91c-13.49,0-20.23-11.93-20.23-28.69s6.74-28.69,20.23-28.69c13.65,0,20,11.92,20,28.69S596,148.58,582.35,148.58Z">
 </path>
 <path class="cls-3" d="M641.24,48.33c0,8.65,6.4,14.87,15,14.87s15-6.22,15-14.87c0-8.47-6.39-14.69-15-14.69S641.24,39.86,641.24,48.33Zm3.28,115.11a3,3,0,0,0,3.29,3.29h16.94a3,3,0,0,0,3.28-3.29V76.68a3,3,0,0,0-3.28-3.28H647.81a3,3,0,0,0-3.29,3.28Z">
 </path>
 <path class="cls-3" d="M730.47,166.73a3,3,0,0,0,3.28-3.29V149.62c0-2.08-1.21-3.11-3.28-3.11h-9.85c-3.81,0-6-2.25-6-6V42.11a3,3,0,0,0-3.29-3.28H694.35c-2.08,0-3.12,1.21-3.12,3.28V142.19c0,15.9,8.47,24.54,24.37,24.54Z">
 </path>
 <path class="cls-3" d="M783.56,166.73a3,3,0,0,0,3.29-3.29V149.62c0-2.08-1.21-3.11-3.29-3.11h-9.85c-3.8,0-6.05-2.25-6.05-6V42.11a3,3,0,0,0-3.28-3.28H747.44c-2.07,0-3.11,1.21-3.11,3.28V142.19c0,15.9,8.47,24.54,24.37,24.54Z">
 </path>
</svg>